<?xml version="1.0" encoding="UTF-8" standalone="no" ?>
<!DOCTYPE svg PUBLIC "-//W3C//DTD SVG 1.1//EN" "http://www.w3.org/Graphics/SVG/1.1/DTD/svg11.dtd">
<svg xmlns="http://www.w3.org/2000/svg" xmlns:xlink="http://www.w3.org/1999/xlink" version="1.1" width="500" height="500" viewBox="0 0 500 500" xml:space="preserve">
<desc>Created with Fabric.js 5.3.0</desc>
<defs>
</defs>
<g transform="matrix(1 0 0 1 120.9371614301 125.6291222777)" id="2oOxqKWG1rWJQWK1cAru-"  >
<path style="stroke: rgb(0,0,0); stroke-width: 0; stroke-dasharray: none; stroke-linecap: butt; stroke-dashoffset: 0; stroke-linejoin: miter; stroke-miterlimit: 4; fill: rgb(247,47,58); fill-rule: nonzero; opacity: 1;" vector-effect="non-scaling-stroke"  transform=" translate(0, 0)" d="M 15.30336 42.84325 L 15.30336 122.92056 L -120.6663 122.92056 L -120.93716 -122.92057 L 120.93716 -122.92057 L 120.93716 15.21593999999999 L 44.55579 15.21593999999999 L 44.55579 -49.24777000000002 L -50.24378 -49.24777000000002 L -50.24378 42.84323999999998 z" stroke-linecap="round" />
</g>
<g transform="matrix(-1 0 0 -1 370.93716 371.0567578767)" id="sZiiSSDlEgBTaJb0ihZDh"  >
<path style="stroke: rgb(0,0,0); stroke-width: 0; stroke-dasharray: none; stroke-linecap: butt; stroke-dashoffset: 0; stroke-linejoin: miter; stroke-miterlimit: 4; fill: rgb(247,47,58); fill-rule: nonzero; opacity: 1;" vector-effect="non-scaling-stroke"  transform=" translate(0, 0.000005)" d="M 15.30336 42.84325 L 15.30336 122.92056 L -120.6663 122.92056 L -120.93716 -122.92057 L 120.93716 -122.92057 L 120.93716 15.21593999999999 L 44.55579 15.21593999999999 L 44.55579 -49.24777000000002 L -50.24378 -49.24777000000002 L -50.24378 42.84323999999998 z" stroke-linecap="round" />
</g>
<g transform="matrix(0.9897541355 0 0 1 120.9371614301 322.6775772046)" id="7p1wuhWW9j2Nwi1FOSo9e"  >
<path style="stroke: rgb(0,0,0); stroke-width: 0; stroke-dasharray: none; stroke-linecap: butt; stroke-dashoffset: 0; stroke-linejoin: miter; stroke-miterlimit: 4; fill: rgb(252,134,29); fill-rule: nonzero; opacity: 1;" vector-effect="non-scaling-stroke"  transform=" translate(0, 0)" d="M 44.8866 -171.29975 L 44.8866 99.86589000000001 L -50.82679 99.86589000000001 L -50.82679 10.293180000000007 L 15.450059999999993 10.293180000000007 L 15.450059999999993 -64.67375 L -122.18910000000001 -64.67375 L -122.18910000000001 171.29973 L 122.18908999999998 171.29973 L 122.18908999999998 -171.29976 z" stroke-linecap="round" />
</g>
<g transform="matrix(-0.9897541355 0 0 -1 370.9371620893 174.0083040466)" id="tb4VWkTIR0IZNSt5Hxzm5"  >
<path style="stroke: rgb(0,0,0); stroke-width: 0; stroke-dasharray: none; stroke-linecap: butt; stroke-dashoffset: 0; stroke-linejoin: miter; stroke-miterlimit: 4; fill: rgb(252,134,29); fill-rule: nonzero; opacity: 1;" vector-effect="non-scaling-stroke"  transform=" translate(0.000005, 0.000015)" d="M 44.8866 -171.29975 L 44.8866 99.86589000000001 L -50.82679 99.86589000000001 L -50.82679 10.293180000000007 L 15.450059999999993 10.293180000000007 L 15.450059999999993 -64.67375 L -122.18910000000001 -64.67375 L -122.18910000000001 171.29973 L 122.18908999999998 171.29973 L 122.18908999999998 -171.29976 z" stroke-linecap="round" />
</g>
</svg>